<svg xmlns="http://www.w3.org/2000/svg" viewBox="0 0 960 620" role="img" aria-labelledby="title desc">
  <title id="title">Hidrocarburos y petroleras</title>
  <desc id="desc">Refineria, torre de perforacion y tuberias para operaciones petroleras.</desc>
  <defs>
    <linearGradient id="bg" x1="0" x2="1" y1="0" y2="1">
      <stop offset="0" stop-color="#10001f"/>
      <stop offset=".5" stop-color="#2f0758"/>
      <stop offset="1" stop-color="#07000f"/>
    </linearGradient>
    <linearGradient id="pipe" x1="0" x2="1">
      <stop offset="0" stop-color="#d946ef"/>
      <stop offset="1" stop-color="#7dd3fc"/>
    </linearGradient>
    <filter id="glow">
      <feGaussianBlur stdDeviation="8" result="blur"/>
      <feMerge>
        <feMergeNode in="blur"/>
        <feMergeNode in="SourceGraphic"/>
      </feMerge>
    </filter>
  </defs>
  <rect width="960" height="620" rx="38" fill="url(#bg)"/>
  <circle cx="800" cy="128" r="140" fill="#a855f7" opacity=".16"/>
  <path d="M0 456 C150 390 340 418 520 356 C660 308 790 300 960 250 L960 620 L0 620Z" fill="#090014" opacity=".88"/>
  <g opacity=".22" stroke="#f4edff">
    <path d="M96 112H878M96 188H878M96 264H878M96 340H878"/>
    <path d="M156 86V382M286 86V382M416 86V382M546 86V382M676 86V382M806 86V382"/>
  </g>
  <g transform="translate(132 220)" stroke="#f4edff" stroke-width="9" stroke-linecap="round" stroke-linejoin="round" opacity=".92">
    <path d="M86 296V0"/>
    <path d="M0 296L86 0L172 296"/>
    <path d="M32 198H140M48 136H124M64 74H108"/>
    <path d="M18 296L86 198L154 296M48 136L124 198M124 136L48 198"/>
  </g>
  <g transform="translate(388 270)" fill="#16002d" stroke="#f4edff" stroke-width="8" opacity=".95">
    <rect x="0" y="122" width="112" height="176" rx="12"/>
    <rect x="154" y="68" width="92" height="230" rx="12"/>
    <rect x="296" y="0" width="96" height="298" rx="12"/>
    <path d="M30 122V62H82V122M180 68V20H220V68M324 0V-58H366V0" fill="none"/>
  </g>
  <g filter="url(#glow)" fill="none" stroke="url(#pipe)" stroke-width="18" stroke-linecap="round">
    <path d="M80 515H360C445 515 458 470 542 470H880"/>
    <path d="M555 470C605 470 625 430 670 430H884" opacity=".72"/>
  </g>
  <g fill="#d946ef" filter="url(#glow)">
    <circle cx="765" cy="100" r="5"/>
    <circle cx="830" cy="360" r="4"/>
    <circle cx="296" cy="130" r="4"/>
    <circle cx="468" cy="198" r="5"/>
  </g>
</svg>
