<svg xmlns="http://www.w3.org/2000/svg" viewBox="0 0 960 620" role="img" aria-labelledby="title desc">
  <title id="title">Empresas electricas y solares</title>
  <desc id="desc">Paneles solares, torre electrica y ciudad energetica en estilo premium Devnex.</desc>
  <defs>
    <linearGradient id="bg" x1="0" x2="1" y1="0" y2="1">
      <stop offset="0" stop-color="#16002d"/>
      <stop offset="0.55" stop-color="#2b0752"/>
      <stop offset="1" stop-color="#05000d"/>
    </linearGradient>
    <linearGradient id="solar" x1="0" x2="1">
      <stop offset="0" stop-color="#7dd3fc"/>
      <stop offset="1" stop-color="#a855f7"/>
    </linearGradient>
    <linearGradient id="sun" x1="0" x2="1">
      <stop offset="0" stop-color="#f8d66d"/>
      <stop offset="1" stop-color="#d946ef"/>
    </linearGradient>
    <filter id="glow">
      <feGaussianBlur stdDeviation="9" result="blur"/>
      <feMerge>
        <feMergeNode in="blur"/>
        <feMergeNode in="SourceGraphic"/>
      </feMerge>
    </filter>
  </defs>
  <rect width="960" height="620" rx="38" fill="url(#bg)"/>
  <circle cx="760" cy="128" r="86" fill="url(#sun)" opacity=".9" filter="url(#glow)"/>
  <path d="M0 455 C160 390 255 418 390 382 C540 342 690 348 960 250 L960 620 L0 620 Z" fill="#0b0018" opacity=".82"/>
  <g opacity=".22" stroke="#d8caff" stroke-width="1">
    <path d="M80 96H880M80 168H880M80 240H880M80 312H880M80 384H880"/>
    <path d="M120 64V440M220 64V440M320 64V440M420 64V440M520 64V440M620 64V440M720 64V440M820 64V440"/>
  </g>
  <g transform="translate(108 354) skewX(-18)" filter="url(#glow)">
    <rect x="0" y="0" width="230" height="118" rx="10" fill="url(#solar)" opacity=".82"/>
    <path d="M22 0V118M70 0V118M118 0V118M166 0V118M0 38H230M0 78H230" stroke="#f4edff" stroke-width="4" opacity=".58"/>
    <rect x="270" y="-18" width="250" height="132" rx="10" fill="url(#solar)" opacity=".72"/>
    <path d="M292 -18V114M344 -18V114M396 -18V114M448 -18V114M500 -18V114M270 26H520M270 70H520" stroke="#f4edff" stroke-width="4" opacity=".56"/>
  </g>
  <g transform="translate(620 250)" stroke="#f4edff" stroke-width="9" stroke-linecap="round" stroke-linejoin="round" opacity=".92">
    <path d="M66 260V0"/>
    <path d="M0 88H132L66 0Z"/>
    <path d="M20 166H112L66 88Z"/>
    <path d="M6 92L-92 136M126 92L228 136M24 170L-54 224M108 170L184 224"/>
    <path d="M34 260L66 166L98 260"/>
  </g>
  <g fill="#7dd3fc" filter="url(#glow)">
    <circle cx="122" cy="128" r="5"/>
    <circle cx="210" cy="208" r="4"/>
    <circle cx="832" cy="368" r="5"/>
    <circle cx="430" cy="122" r="4"/>
  </g>
</svg>
